<?xml version="1.0" standalone="no"?>
<svg xmlns:xlink="http://www.w3.org/1999/xlink" id="wave" style="transform:rotate(0deg); transition: 0.3s" viewBox="0 0 1440 110" version="1.1" xmlns="http://www.w3.org/2000/svg"><defs><linearGradient id="sw-gradient-0" x1="0" x2="0" y1="1" y2="0"><stop stop-color="rgba(255, 255, 255, 1)" offset="0%"/><stop stop-color="rgba(255, 255, 255, 1)" offset="100%"/></linearGradient></defs><path style="transform:translate(0, 0px); opacity:1" fill="url(#sw-gradient-0)" d="M0,0L26.7,14.7C53.3,29,107,59,160,69.7C213.3,81,267,73,320,75.2C373.3,77,427,88,480,93.5C533.3,99,587,99,640,86.2C693.3,73,747,48,800,38.5C853.3,29,907,37,960,45.8C1013.3,55,1067,66,1120,60.5C1173.3,55,1227,33,1280,22C1333.3,11,1387,11,1440,16.5C1493.3,22,1547,33,1600,33C1653.3,33,1707,22,1760,18.3C1813.3,15,1867,18,1920,23.8C1973.3,29,2027,37,2080,34.8C2133.3,33,2187,22,2240,27.5C2293.3,33,2347,55,2400,60.5C2453.3,66,2507,55,2560,51.3C2613.3,48,2667,51,2720,60.5C2773.3,70,2827,84,2880,89.8C2933.3,95,2987,92,3040,89.8C3093.3,88,3147,88,3200,89.8C3253.3,92,3307,95,3360,86.2C3413.3,77,3467,55,3520,45.8C3573.3,37,3627,40,3680,36.7C3733.3,33,3787,22,3813,16.5L3840,11L3840,110L3813.3,110C3786.7,110,3733,110,3680,110C3626.7,110,3573,110,3520,110C3466.7,110,3413,110,3360,110C3306.7,110,3253,110,3200,110C3146.7,110,3093,110,3040,110C2986.7,110,2933,110,2880,110C2826.7,110,2773,110,2720,110C2666.7,110,2613,110,2560,110C2506.7,110,2453,110,2400,110C2346.7,110,2293,110,2240,110C2186.7,110,2133,110,2080,110C2026.7,110,1973,110,1920,110C1866.7,110,1813,110,1760,110C1706.7,110,1653,110,1600,110C1546.7,110,1493,110,1440,110C1386.7,110,1333,110,1280,110C1226.7,110,1173,110,1120,110C1066.7,110,1013,110,960,110C906.7,110,853,110,800,110C746.7,110,693,110,640,110C586.7,110,533,110,480,110C426.7,110,373,110,320,110C266.7,110,213,110,160,110C106.7,110,53,110,27,110L0,110Z"/></svg>